<svg xmlns="http://www.w3.org/2000/svg" width="1200" height="630" viewBox="0 0 1200 630">
  <defs>
    <linearGradient id="background" x1="0" y1="0" x2="1" y2="1">
      <stop offset="0" stop-color="#fbfdff" />
      <stop offset="1" stop-color="#e9f0f9" />
    </linearGradient>
    <radialGradient id="blue-glow">
      <stop offset="0" stop-color="#2563eb" stop-opacity=".22" />
      <stop offset="1" stop-color="#2563eb" stop-opacity="0" />
    </radialGradient>
    <radialGradient id="green-glow">
      <stop offset="0" stop-color="#22a77a" stop-opacity=".18" />
      <stop offset="1" stop-color="#22a77a" stop-opacity="0" />
    </radialGradient>
    <pattern id="grid" width="32" height="32" patternUnits="userSpaceOnUse">
      <path d="M32 0H0V32" fill="none" stroke="#2563eb" stroke-opacity=".06" />
    </pattern>
    <filter id="shadow" x="-40%" y="-40%" width="180%" height="180%">
      <feDropShadow dx="0" dy="16" stdDeviation="18" flood-color="#17375e" flood-opacity=".18" />
    </filter>
  </defs>
  <rect width="1200" height="630" rx="28" fill="url(#background)" />
  <rect width="1200" height="630" rx="28" fill="url(#grid)" />
  <circle cx="1080" cy="60" r="360" fill="url(#blue-glow)" />
  <circle cx="60" cy="610" r="310" fill="url(#green-glow)" />
  <g transform="translate(72 56) scale(1.7)" filter="url(#shadow)">
    <path d="M20 2.5 36 11.3 20 20 4 11.3 20 2.5Z" fill="#2563eb" />
    <path d="M4 11.3 20 20v17.5L4 28.7V11.3Z" fill="#14243b" />
    <path d="M36 11.3 20 20v17.5l16-8.8V11.3Z" fill="#22a77a" />
    <path d="m20 8 6 3.3-6 3.2-6-3.2L20 8Z" fill="#f2f5f9" />
  </g>
  <text x="158" y="91" fill="#14243b" font-family="-apple-system, BlinkMacSystemFont, 'Segoe UI', sans-serif" font-size="28" font-weight="800" letter-spacing="-1">Native <tspan fill="#2563eb">Cube</tspan></text>
  <text x="159" y="118" fill="#637187" font-family="ui-monospace, SFMono-Regular, Menlo, monospace" font-size="12" font-weight="700" letter-spacing="2">CLOUD-NATIVE TOOLBOX</text>
  <text x="74" y="241" fill="#2563eb" font-family="ui-monospace, SFMono-Regular, Menlo, monospace" font-size="17" font-weight="800" letter-spacing="3">IPV4 / NETWORK PLANNING</text>
  <text x="70" y="330" fill="#14243b" font-family="-apple-system, BlinkMacSystemFont, 'Segoe UI', sans-serif" font-size="72" font-weight="760" letter-spacing="-4">Visualize IPv4</text>
  <text x="70" y="408" fill="#2563eb" font-family="Georgia, 'Times New Roman', serif" font-size="76" font-style="italic">networks.</text>
  <g transform="translate(888 214) scale(6.2)" opacity=".92" filter="url(#shadow)">
    <path d="M20 2.5 36 11.3 20 20 4 11.3 20 2.5Z" fill="#2563eb" />
    <path d="M4 11.3 20 20v17.5L4 28.7V11.3Z" fill="#14243b" />
    <path d="M36 11.3 20 20v17.5l16-8.8V11.3Z" fill="#22a77a" />
    <path d="m20 8 6 3.3-6 3.2-6-3.2L20 8Z" fill="#f2f5f9" />
  </g>
  <g transform="translate(72 530)">
    <rect width="432" height="42" rx="21" fill="#ffffff" stroke="#d6dfeb" />
    <text x="22" y="27" fill="#637187" font-family="ui-monospace, SFMono-Regular, Menlo, monospace" font-size="14" font-weight="700">SPLIT · JOIN · ANNOTATE · SHARE</text>
  </g>
</svg>
